{"glyphs":{":":{"x_min":0,"x_max":333,"ha":333,"o":"m 99 358 q 99 388 121 410 q 142 431 172 431 q 202 431 223 410 q 244 388 244 358 q 244 327 223 306 q 203 285 172 285 q 141 285 120 306 q 99 327 99 358 z m 5 62 q 5 92 26 113 q 47 134 77 134 q 107 134 128 113 q 149 92 149 62 q 149 31 128 9 q 107 -12 77 -12 q 46 -12 26 9 q 5 31 5 62 z"},"$":{"x_min":0,"x_max":528,"ha":528,"o":"m 257 430 l 308 404 l 369 625 q 356 630 343 634 q 329 638 315 639 z m 244 438 l 300 639 q 249 636 213 602 q 177 568 177 524 q 177 499 193 478 q 209 458 244 438 z m 216 13 q 284 14 329 56 q 374 99 374 160 q 374 196 354 223 q 333 250 287 272 z m 147 30 q 165 23 177 20 q 190 16 200 14 l 273 279 q 260 287 248 294 q 235 301 224 307 z m 96 -156 l 80 -149 l 128 19 q 101 30 66 47 q 32 64 24 64 q 13 64 5 54 q -3 45 -8 27 l -23 31 l 41 262 l 56 259 q 52 232 50 216 q 48 199 48 188 q 48 137 70 98 q 92 60 134 37 l 209 315 q 154 348 130 382 q 105 416 105 457 q 105 533 162 591 q 219 648 304 655 l 340 781 l 354 776 l 320 655 q 330 654 342 651 q 354 649 375 644 l 413 781 l 430 776 l 389 638 q 412 632 440 619 q 469 606 476 606 q 485 606 492 614 q 500 622 505 638 l 519 634 l 466 442 l 451 445 q 453 455 453 464 q 454 473 454 482 q 454 528 436 562 q 418 596 382 617 l 322 395 q 397 357 423 323 q 449 290 449 233 q 449 181 425 130 q 401 79 362 46 q 333 22 295 10 q 258 -2 211 -3 l 169 -156 l 153 -151 l 195 -1 q 185 1 172 5 q 159 8 142 14 z"},"?":{"x_min":0,"x_max":500,"ha":500,"o":"m 166 203 l 150 204 l 173 307 q 188 376 203 404 q 219 431 247 445 q 254 449 268 456 q 399 522 399 581 q 399 621 368 644 q 338 668 287 668 q 249 668 219 652 q 190 636 190 619 q 190 615 205 612 q 214 611 220 610 q 239 605 249 593 q 260 580 260 562 q 260 539 246 525 q 231 511 207 511 q 182 511 167 528 q 151 544 151 571 q 151 619 190 651 q 229 683 288 683 q 354 683 394 642 q 434 601 434 532 q 434 458 397 411 q 360 364 248 309 q 242 306 232 302 q 182 278 170 224 z m 74 57 q 74 87 95 108 q 117 129 147 129 q 177 129 198 108 q 219 87 219 57 q 219 26 198 5 q 177 -16 147 -16 q 116 -16 95 5 q 74 26 74 57 z"},"<":{"x_min":0,"x_max":833,"ha":833,"o":"m 704 484 l 248 298 l 704 112 l 704 23 l 129 259 l 129 337 l 704 574 z"},"'":{"x_min":0,"x_max":175,"ha":175,"o":"m 78 418 l 42 642 q 42 646 41 650 q 41 654 41 661 q 41 687 53 700 q 65 714 87 714 q 110 714 122 700 q 134 687 134 661 q 134 653 134 649 q 133 645 133 642 l 97 418 z"},"=":{"x_min":0,"x_max":833,"ha":833,"o":"m 709 238 l 709 157 l 124 157 l 124 238 z m 709 440 l 709 358 l 124 358 l 124 440 z"},"a":{"x_min":0,"x_max":556,"ha":556,"o":"m 148 12 q 179 12 215 46 q 250 80 279 138 q 304 188 319 245 q 335 302 335 336 q 335 371 318 392 q 300 413 272 413 q 246 413 224 393 q 202 374 178 328 q 144 263 124 190 q 103 118 103 70 q 103 42 115 27 q 126 12 148 12 z m 370 419 l 500 419 l 398 94 q 392 74 389 60 q 386 46 386 39 q 386 32 392 27 q 397 22 405 22 q 418 22 442 42 q 466 63 489 96 l 500 86 q 467 38 429 12 q 391 -13 351 -13 q 311 -13 289 8 q 267 29 267 68 l 267 78 q 227 32 189 10 q 151 -12 111 -12 q 53 -12 20 29 q -14 69 -14 139 q -14 189 3 237 q 21 284 55 325 q 97 376 149 404 q 201 431 257 431 q 296 431 319 412 q 342 394 348 357 z"},"L":{"x_min":0,"x_max":606,"ha":606,"o":"m 150 15 l 282 15 q 377 15 453 80 q 528 145 561 255 l 576 255 l 501 0 l -72 0 l -69 15 l 6 15 l 183 652 l 108 652 l 112 667 l 407 667 l 404 652 l 327 652 z"},"3":{"x_min":0,"x_max":528,"ha":528,"o":"m 157 358 l 157 373 l 169 373 q 257 373 289 383 q 320 392 340 416 q 347 424 354 439 q 361 455 368 474 q 381 511 386 533 q 391 555 391 573 q 391 613 370 633 q 349 654 309 654 q 272 654 240 636 q 207 619 207 604 q 207 600 209 596 q 211 593 214 592 q 251 585 263 574 q 275 563 275 541 q 275 515 259 498 q 242 481 218 481 q 192 481 176 498 q 159 515 159 542 q 159 597 203 633 q 247 670 312 670 q 397 670 449 629 q 502 587 502 522 q 502 445 443 404 q 385 363 273 362 q 354 339 391 302 q 428 264 428 206 q 428 163 407 116 q 385 70 351 39 q 321 12 284 -1 q 246 -14 200 -14 q 116 -14 67 21 q 18 56 18 115 q 18 157 40 183 q 61 210 94 210 q 121 210 138 193 q 155 176 155 150 q 155 126 138 108 q 121 91 98 91 q 86 91 73 99 q 59 108 56 108 q 51 108 46 102 q 42 95 42 87 q 42 59 77 32 q 113 6 156 6 q 185 6 207 20 q 229 34 251 65 q 259 77 268 99 q 277 120 288 153 q 301 192 307 224 q 314 255 314 277 q 314 320 284 339 q 253 358 182 358 z"},";":{"x_min":0,"x_max":333,"ha":333,"o":"m -33 -147 l -35 -134 q 27 -130 62 -101 q 97 -72 99 -22 q 89 -25 81 -27 q 73 -29 66 -29 q 40 -29 21 -8 q 2 12 2 42 q 2 76 22 96 q 42 116 77 116 q 109 116 127 94 q 146 71 146 33 q 146 -42 95 -94 q 43 -147 -31 -147 z m 101 358 q 101 388 122 410 q 143 431 173 431 q 203 431 224 410 q 245 388 245 358 q 245 327 224 306 q 204 285 173 285 q 143 285 122 306 q 101 327 101 358 z"},"J":{"x_min":0,"x_max":454,"ha":454,"o":"m 304 652 l 230 652 l 234 667 l 527 667 l 523 652 l 448 652 l 317 178 q 282 52 212 -17 q 143 -86 50 -86 q -10 -86 -45 -57 q -81 -28 -81 19 q -81 56 -59 81 q -37 105 -3 105 q 30 105 50 87 q 69 68 69 37 q 69 10 54 -6 q 40 -22 15 -22 q 12 -22 4 -21 q -4 -20 -8 -20 q -20 -20 -26 -24 q -33 -28 -33 -34 q -33 -49 -14 -59 q 6 -70 35 -70 q 69 -70 94 -44 q 120 -19 133 31 z"},"V":{"x_min":0,"x_max":512,"ha":512,"o":"m 98 -16 l 80 -16 l 141 652 l 77 652 l 83 667 l 350 667 l 347 652 l 277 652 l 236 203 l 482 539 q 503 568 513 587 q 522 605 522 619 q 522 637 509 644 q 496 652 464 652 l 457 652 l 460 667 l 655 667 l 651 652 q 583 650 506 543 l 503 539 z"},"\"":{"x_min":0,"x_max":339,"ha":339,"o":"m 242 418 l 206 642 q 206 646 205 650 q 205 654 205 661 q 205 686 218 700 q 230 714 252 714 q 274 714 286 700 q 299 687 299 662 q 299 656 297 645 q 297 643 297 642 l 261 418 z m 78 418 l 42 642 q 42 646 41 650 q 41 654 41 661 q 41 687 53 700 q 65 714 87 714 q 110 714 122 700 q 134 687 134 661 q 134 653 134 649 q 133 645 133 642 l 97 418 z"},"7":{"x_min":0,"x_max":528,"ha":528,"o":"m 126 489 l 111 492 l 189 678 l 203 675 l 195 655 q 249 643 301 636 q 353 630 401 630 q 445 630 481 637 q 516 645 546 660 l 556 650 q 407 467 317 327 q 227 188 227 145 q 227 132 233 123 q 239 114 258 103 q 279 91 286 79 q 293 66 293 46 q 293 21 275 3 q 257 -14 229 -14 q 201 -14 184 4 q 167 22 167 53 q 167 103 243 236 q 319 369 445 534 q 410 524 375 519 q 339 514 303 514 q 266 514 227 521 q 189 528 148 542 z"},"S":{"x_min":0,"x_max":551,"ha":551,"o":"m -23 22 l -38 26 q -16 84 2 141 q 20 198 33 254 l 48 250 q 47 243 46 229 q 44 193 44 180 q 44 95 95 47 q 147 -2 237 -2 q 311 -2 358 40 q 405 82 405 145 q 405 180 387 206 q 370 231 328 255 l 211 320 q 160 348 138 380 q 116 412 116 455 q 116 553 177 618 q 238 683 330 683 q 359 683 386 677 q 414 671 440 660 q 454 654 477 642 q 509 624 521 624 q 528 624 534 630 q 541 636 549 650 l 562 644 q 542 602 527 554 q 513 507 503 455 l 488 454 q 489 464 490 475 q 491 485 491 495 q 491 573 447 621 q 402 668 330 668 q 269 668 230 634 q 191 601 191 549 q 191 518 206 497 q 221 475 254 457 l 378 390 q 432 360 456 324 q 480 288 480 235 q 480 128 412 56 q 343 -17 242 -17 q 208 -17 178 -11 q 149 -5 123 7 q 104 16 73 33 q 29 57 14 57 q 4 57 -5 48 q -15 39 -23 22 z"},"}":{"x_min":0,"x_max":500,"ha":500,"o":"m 281 571 l 281 473 q 281 394 309 364 q 336 334 414 327 l 414 294 q 337 288 309 258 q 281 228 281 148 l 281 50 q 281 -46 240 -83 q 199 -119 90 -119 l 85 -119 l 85 -91 q 148 -90 171 -65 q 194 -40 194 37 l 194 104 q 194 215 221 255 q 249 294 323 310 q 250 326 222 365 q 194 405 194 516 l 194 583 q 194 660 171 686 q 147 711 85 712 l 85 740 l 90 740 q 199 740 240 704 q 281 667 281 571 z"},"Z":{"x_min":0,"x_max":611,"ha":611,"o":"m -33 0 l 454 652 l 345 652 q 270 652 215 608 q 161 564 117 467 l 102 467 l 141 667 l 634 667 l 144 15 l 300 15 q 374 15 438 66 q 503 117 540 206 l 555 206 l 505 0 z"},"x":{"x_min":0,"x_max":551,"ha":551,"o":"m 456 109 l 465 100 q 422 44 375 16 q 329 -12 280 -12 q 217 -12 185 19 q 153 49 153 110 l 153 113 q 130 52 95 20 q 61 -12 20 -12 q -12 -12 -33 6 q -54 25 -54 53 q -54 82 -37 100 q -20 119 6 119 q 30 119 46 104 q 62 89 62 66 q 62 45 51 32 q 41 19 19 14 q 23 10 27 8 q 31 6 35 6 q 57 6 80 27 q 103 47 123 85 q 153 142 174 214 q 194 286 194 330 q 194 363 182 380 q 169 397 146 397 q 117 397 79 372 q 42 347 2 301 l -8 312 q 40 371 95 401 q 150 431 211 431 q 268 431 295 404 q 323 377 323 322 q 323 319 323 313 q 322 307 322 304 q 348 364 388 397 q 427 431 471 431 q 507 431 529 411 q 551 391 551 359 q 551 331 532 312 q 514 293 486 293 q 461 293 445 309 q 429 326 429 351 q 429 370 440 384 q 451 397 474 406 q 470 410 464 413 q 458 415 453 415 q 426 415 390 378 q 354 341 329 285 q 301 219 286 162 q 271 104 271 63 q 271 34 282 20 q 294 6 317 6 q 341 6 378 33 q 415 61 456 109 z"},")":{"x_min":0,"x_max":352,"ha":352,"o":"m -107 -198 q -51 -163 -3 -99 q 44 -35 81 53 q 119 145 140 255 q 161 365 161 474 q 161 539 149 588 q 137 637 112 676 l 119 683 q 177 601 208 505 q 239 410 239 315 q 239 158 153 25 q 67 -107 -100 -208 z"},"&":{"x_min":0,"x_max":718,"ha":718,"o":"m 353 412 q 414 435 442 466 q 470 497 470 542 q 470 577 448 599 q 425 621 389 621 q 358 621 342 601 q 325 581 325 544 q 325 515 332 481 q 339 448 353 412 z m 245 350 q 197 337 173 301 q 148 264 148 206 q 148 134 177 86 q 206 39 248 39 q 274 39 298 56 q 322 74 344 107 q 317 165 293 225 q 268 286 245 350 z m 628 114 l 640 108 q 612 46 575 15 q 538 -16 492 -16 q 449 -16 417 8 q 386 33 353 92 q 314 38 271 11 q 227 -15 177 -15 q 111 -15 68 34 q 26 83 26 158 q 26 227 77 277 q 128 327 241 366 q 232 399 229 424 q 225 448 225 467 q 225 542 269 591 q 313 641 378 641 q 425 641 455 612 q 485 583 485 539 q 485 493 453 457 q 421 421 359 397 q 375 354 393 311 q 412 267 435 219 q 478 278 509 302 q 540 326 571 326 q 607 326 628 306 q 648 287 648 251 q 648 221 629 203 q 611 184 582 184 q 556 184 537 202 q 519 219 519 244 q 519 250 522 262 q 526 273 526 279 q 526 280 524 281 q 523 282 520 282 q 512 282 505 277 q 497 271 489 261 l 442 204 q 474 128 503 91 q 533 54 561 54 q 580 54 596 69 q 613 83 628 114 z"},"_":{"x_min":0,"x_max":500,"ha":500,"o":"m 500 -152 l 500 -236 l 0 -236 l 0 -152 z"},"v":{"x_min":0,"x_max":486,"ha":486,"o":"m 92 404 l 27 404 l 31 419 l 80 419 q 119 419 156 422 q 192 425 228 431 l 139 118 q 130 88 127 72 q 123 55 123 46 q 123 36 131 28 q 139 20 150 20 q 165 20 198 36 q 231 53 262 78 q 320 125 359 186 q 397 246 397 286 q 397 301 369 312 q 351 320 341 326 q 329 333 323 346 q 316 359 316 376 q 316 400 332 416 q 348 431 373 431 q 403 431 420 411 q 437 391 437 356 q 437 308 413 253 q 390 197 345 141 q 289 71 219 29 q 149 -12 89 -12 q 47 -12 23 8 q -1 28 -1 62 q -1 71 1 83 q 3 95 7 107 z"},"O":{"x_min":0,"x_max":671,"ha":671,"o":"m 410 668 q 353 668 311 621 q 268 573 227 462 q 193 370 174 281 q 156 191 156 119 q 156 60 183 30 q 210 -1 262 -1 q 319 -1 361 46 q 404 94 445 205 q 479 297 498 386 q 516 475 516 547 q 516 606 489 637 q 462 668 410 668 z m 273 -17 q 163 -17 94 59 q 25 136 25 258 q 25 330 52 402 q 78 474 127 534 q 186 607 255 645 q 324 683 398 683 q 508 683 577 607 q 646 530 646 408 q 646 335 620 264 q 594 193 544 132 q 484 59 415 21 q 347 -17 273 -17 z"},"(":{"x_min":0,"x_max":352,"ha":352,"o":"m 408 672 q 352 636 304 572 q 255 508 219 421 q 181 330 161 220 q 140 111 140 1 q 140 -65 152 -114 q 164 -163 188 -201 l 182 -208 q 124 -125 93 -30 q 61 66 61 160 q 61 317 147 449 q 232 582 400 683 z"},"C":{"x_min":0,"x_max":611,"ha":611,"o":"m 541 157 l 552 150 q 508 69 444 26 q 379 -17 302 -17 q 259 -17 222 -4 q 185 9 155 34 q 104 77 75 139 q 47 202 47 272 q 47 359 83 440 q 120 521 186 583 q 241 634 301 659 q 360 683 431 683 q 467 683 497 676 q 527 668 556 652 q 564 647 577 639 q 602 621 614 621 q 626 621 634 631 q 642 641 644 659 l 659 656 q 640 595 627 535 q 613 475 605 414 l 593 416 q 594 424 595 434 q 595 443 595 461 q 595 557 552 613 q 509 669 435 669 q 381 669 341 634 q 301 599 259 511 q 214 419 189 324 q 164 229 164 152 q 164 80 203 39 q 241 -2 308 -2 q 375 -2 434 38 q 494 79 541 157 z"},"W":{"x_min":0,"x_max":829,"ha":829,"o":"m 428 -16 l 410 -16 l 456 494 l 91 -16 l 73 -16 l 135 652 l 71 652 l 77 667 l 344 667 l 340 652 l 270 652 l 230 203 l 460 525 l 472 652 l 408 652 l 414 667 l 681 667 l 677 652 l 607 652 l 567 203 l 802 539 q 828 576 834 591 q 841 605 841 618 q 841 636 828 644 q 816 652 787 652 l 776 652 l 780 667 l 974 667 l 971 652 q 932 651 901 630 q 871 608 822 539 z"},"A":{"x_min":0,"x_max":549,"ha":549,"o":"m 113 218 l 288 218 l 284 479 z m -111 0 l -107 15 q -105 15 -102 15 q -99 14 -97 14 q -69 14 -40 38 q -11 62 22 112 l 400 683 l 417 683 l 426 15 l 489 15 l 485 0 l 214 0 l 218 15 l 291 15 l 288 200 l 103 200 l 20 73 q 14 63 11 56 q 8 48 8 41 q 8 27 22 21 q 36 16 83 15 l 80 0 z"},"f":{"x_min":0,"x_max":296,"ha":296,"o":"m 221 404 q 161 81 77 -84 q -7 -248 -112 -248 q -150 -248 -174 -229 q -198 -210 -198 -182 q -198 -153 -180 -137 q -161 -120 -129 -120 q -104 -120 -87 -137 q -71 -154 -71 -180 q -71 -197 -80 -209 q -90 -222 -109 -232 q -39 -232 -6 -77 l -5 -74 q 6 -21 37 146 q 68 312 95 404 l 19 404 l 23 419 l 99 419 q 148 556 212 621 q 276 686 362 686 q 404 686 429 668 q 454 650 454 620 q 454 594 435 578 q 417 562 385 562 q 360 562 343 578 q 326 595 326 619 q 326 635 335 648 q 344 660 364 670 l 357 670 q 317 670 285 611 q 254 551 225 419 l 301 419 l 297 404 z"},"Q":{"x_min":0,"x_max":671,"ha":671,"o":"m 410 668 q 353 668 311 621 q 268 573 227 462 q 193 370 174 281 q 156 191 156 119 q 156 59 184 29 q 211 -1 266 -1 q 322 -1 363 45 q 403 92 445 205 q 479 300 498 387 q 516 475 516 547 q 516 606 489 637 q 462 668 410 668 z m 197 -5 q 116 21 71 90 q 25 160 25 257 q 25 330 51 402 q 78 474 127 534 q 187 607 256 645 q 325 683 398 683 q 508 683 577 607 q 646 530 646 408 q 646 335 620 264 q 594 192 544 130 q 499 72 444 38 q 389 4 324 -8 q 308 -46 300 -78 q 292 -109 292 -137 q 292 -167 319 -182 q 347 -197 400 -197 q 406 -197 414 -197 q 421 -196 437 -195 l 434 -210 q 424 -211 413 -211 q 402 -212 384 -212 q 286 -212 230 -180 q 175 -148 175 -91 q 175 -74 180 -53 q 186 -32 197 -5 z"},"w":{"x_min":0,"x_max":764,"ha":764,"o":"m 376 419 l 505 419 l 418 117 q 417 113 415 105 q 403 63 403 48 q 403 36 411 28 q 419 20 431 20 q 446 20 480 37 q 514 55 545 81 q 603 129 639 188 q 676 247 676 285 q 676 300 648 311 q 629 319 619 325 q 607 333 601 345 q 594 358 594 375 q 594 399 611 415 q 627 431 652 431 q 681 431 698 410 q 716 390 716 355 q 716 310 692 253 q 669 197 627 144 q 570 72 500 29 q 429 -13 368 -13 q 326 -13 302 8 q 278 29 278 66 q 278 79 281 93 q 284 107 289 121 q 245 55 194 21 q 144 -13 91 -13 q 48 -13 24 7 q -1 27 -1 62 q -1 71 1 82 q 3 93 7 106 l 92 404 l 27 404 l 31 419 l 80 419 q 120 419 157 422 q 194 425 228 431 l 139 117 l 139 115 q 123 63 123 46 q 123 34 130 27 q 138 20 150 20 q 163 20 189 37 q 216 55 240 81 q 270 112 289 148 q 309 185 323 234 z"},"-":{"x_min":0,"x_max":444,"ha":444,"o":"m 41 169 l 64 250 l 341 250 l 318 169 z"},"E":{"x_min":0,"x_max":606,"ha":606,"o":"m 244 351 l 150 15 l 282 15 q 382 15 448 64 q 513 113 544 211 l 559 208 l 501 0 l -72 0 l -69 15 l 6 15 l 183 652 l 108 652 l 112 667 l 631 667 l 601 487 l 586 487 q 587 502 588 509 q 588 516 588 521 q 588 592 547 622 q 506 652 405 652 l 327 652 l 247 365 l 299 365 q 369 365 397 386 q 425 407 443 467 l 458 467 q 438 413 422 355 q 407 297 396 234 l 381 235 q 385 253 387 267 q 389 281 389 290 q 389 324 368 337 q 347 351 293 351 z"},"s":{"x_min":0,"x_max":426,"ha":426,"o":"m 51 275 q 51 338 108 384 q 165 430 244 430 q 304 430 343 405 q 381 380 381 342 q 381 316 366 301 q 351 285 325 285 q 300 285 284 300 q 267 315 267 337 q 267 350 271 359 q 274 369 281 376 q 288 382 300 386 q 313 390 313 391 q 313 402 295 409 q 276 416 246 416 q 200 416 173 397 q 147 378 147 346 q 147 304 210 271 q 226 263 234 258 q 289 228 311 199 q 333 170 333 132 q 333 71 277 30 q 222 -12 138 -12 q 60 -12 12 19 q -35 49 -35 98 q -35 125 -18 142 q 0 159 27 159 q 55 159 72 143 q 90 127 90 103 q 90 93 87 84 q 84 74 78 66 q 65 49 31 45 q 24 44 24 43 q 24 30 55 16 q 86 3 127 3 q 174 3 201 24 q 228 44 228 80 q 228 98 219 112 q 209 125 188 136 l 183 139 q 55 208 51 275 z"},">":{"x_min":0,"x_max":833,"ha":833,"o":"m 704 337 l 704 259 l 129 23 l 129 112 l 585 298 l 129 484 l 129 574 z"},"l":{"x_min":0,"x_max":282,"ha":282,"o":"m 162 652 l 96 652 l 101 667 l 149 667 q 193 667 229 670 q 265 672 297 678 l 115 61 q 113 54 111 48 q 110 41 110 38 q 110 32 116 26 q 123 21 130 21 q 143 21 167 42 q 192 63 216 96 l 227 86 q 194 38 156 12 q 118 -13 78 -13 q 39 -13 16 7 q -6 28 -6 64 q -6 75 -3 89 q -1 103 4 121 z"},"8":{"x_min":0,"x_max":528,"ha":528,"o":"m 222 328 q 137 291 92 241 q 47 191 47 136 q 47 77 91 40 q 134 2 204 2 q 265 2 302 33 q 339 64 339 115 q 339 171 232 314 z m 338 387 q 412 423 447 461 q 481 500 481 547 q 481 597 448 626 q 416 655 359 655 q 308 655 278 631 q 249 607 249 566 q 249 535 270 492 q 292 449 338 387 z m 214 340 q 182 387 168 419 q 154 451 154 477 q 154 511 171 547 q 189 583 220 613 q 250 642 283 655 q 316 669 356 669 q 421 669 459 636 q 496 604 496 546 q 496 495 460 454 q 424 413 346 375 q 390 322 412 277 q 434 232 434 196 q 434 156 414 114 q 393 71 359 40 q 330 13 291 -1 q 253 -15 208 -15 q 127 -15 79 27 q 30 69 30 138 q 30 197 78 250 q 127 303 214 340 z"},"\\":{"x_min":0,"x_max":278,"ha":278,"o":"m 172 -93 l 143 -93 l 105 683 l 133 683 z"},"e":{"x_min":0,"x_max":431,"ha":431,"o":"m 137 212 q 160 208 168 206 q 176 205 182 205 q 208 205 226 219 q 245 232 262 265 q 277 295 287 328 q 296 361 296 383 q 296 401 288 409 q 280 416 261 416 q 225 416 196 370 q 167 323 137 212 z m 341 94 l 352 84 q 315 35 270 11 q 225 -12 169 -12 q 85 -12 35 32 q -14 76 -14 149 q -14 198 11 249 q 37 300 85 347 q 127 388 173 409 q 218 431 261 431 q 319 431 356 402 q 393 373 393 327 q 393 271 336 230 q 280 189 199 189 q 186 189 169 191 q 153 193 133 197 q 123 155 117 125 q 112 94 112 73 q 112 38 129 20 q 146 3 181 3 q 224 3 263 25 q 302 47 341 94 z"},"b":{"x_min":0,"x_max":523,"ha":523,"o":"m 293 412 q 262 412 225 377 q 189 342 161 284 q 137 233 121 175 q 106 117 106 82 q 106 46 123 24 q 141 3 169 3 q 195 3 218 23 q 240 44 263 90 q 297 156 317 231 q 338 305 338 353 q 338 381 326 396 q 314 412 293 412 z m 147 652 l 84 652 l 88 667 l 136 667 q 179 667 215 670 q 251 672 282 678 l 185 357 q 217 395 251 413 q 286 432 325 432 q 387 432 422 392 q 457 352 457 280 q 457 230 439 183 q 421 136 387 94 q 344 42 289 15 q 234 -12 171 -12 q 103 -12 55 31 q 7 75 7 136 q 7 183 31 266 q 33 273 34 276 z"},"%":{"x_min":0,"x_max":741,"ha":741,"o":"m 507 2 q 529 2 549 27 q 569 51 591 106 q 616 167 631 230 q 646 294 646 329 q 646 349 637 360 q 628 370 611 370 q 589 370 569 345 q 549 321 527 266 q 502 204 487 141 q 472 79 472 44 q 472 23 481 12 q 490 2 507 2 z m 412 118 q 412 161 424 201 q 436 241 459 278 q 491 328 530 355 q 568 382 608 382 q 655 382 679 349 q 704 316 704 254 q 704 210 692 170 q 681 129 658 93 q 628 44 588 17 q 549 -10 508 -10 q 461 -10 437 23 q 412 56 412 118 z m 131 285 q 153 285 173 310 q 193 334 215 390 q 240 451 255 514 q 270 577 270 612 q 270 632 261 643 q 252 653 235 653 q 213 653 193 628 q 173 604 151 549 q 126 487 111 425 q 96 362 96 327 q 96 306 105 296 q 114 285 131 285 z m 37 401 q 37 444 49 485 q 60 525 83 561 q 114 611 154 638 q 193 665 233 665 q 279 665 304 633 q 328 600 328 538 q 328 494 316 454 q 305 413 282 377 q 251 328 212 300 q 172 273 132 273 q 85 273 61 306 q 37 338 37 401 z m 183 -14 l 146 -14 l 562 669 l 595 669 z"},"m":{"x_min":0,"x_max":847,"ha":847,"o":"m -24 0 l 92 404 l 27 404 l 31 419 l 80 419 q 120 419 156 422 q 193 425 227 431 l 194 312 q 252 377 295 404 q 338 431 384 431 q 432 431 458 408 q 484 386 484 345 q 484 338 483 329 q 481 321 479 312 q 537 377 580 404 q 624 431 669 431 q 716 431 742 409 q 768 386 768 346 q 768 332 765 315 q 761 299 751 268 l 683 61 q 680 53 679 48 q 678 44 678 41 q 678 33 684 27 q 689 21 697 21 q 710 21 736 42 q 763 64 785 96 l 796 86 q 763 38 725 12 q 687 -13 647 -13 q 607 -13 585 7 q 563 28 563 64 q 563 77 566 92 q 568 106 573 121 l 653 360 q 656 370 657 377 q 659 385 659 390 q 659 400 653 406 q 647 412 636 412 q 623 412 599 399 q 576 386 553 365 q 516 331 490 297 q 465 264 458 242 l 389 0 l 261 0 l 361 339 q 366 354 368 368 q 371 381 371 390 q 371 400 366 406 q 360 411 350 411 q 336 411 313 398 q 290 385 268 365 q 231 331 205 297 q 180 264 173 242 l 104 0 z"},"#":{"x_min":0,"x_max":769,"ha":769,"o":"m 477 419 l 343 419 l 297 290 l 431 290 z m 449 713 l 373 500 l 504 500 l 580 713 l 669 713 l 593 500 l 735 500 l 706 419 l 564 419 l 519 291 l 669 291 l 640 209 l 490 209 l 415 -3 l 325 -3 l 401 209 l 270 209 l 195 -3 l 105 -3 l 181 209 l 34 209 l 63 291 l 210 291 l 255 419 l 99 419 l 129 500 l 284 500 l 360 713 z"},",":{"x_min":0,"x_max":264,"ha":264,"o":"m -43 -147 l -45 -134 q 17 -130 52 -101 q 87 -71 89 -22 q 80 -25 71 -27 q 63 -29 56 -29 q 29 -29 11 -8 q -8 12 -8 42 q -8 76 12 96 q 33 116 67 116 q 99 116 118 94 q 136 71 136 33 q 136 -42 85 -94 q 34 -147 -41 -147 z"},"n":{"x_min":0,"x_max":562,"ha":562,"o":"m 104 0 l -24 0 l 92 404 l 27 404 l 31 419 l 80 419 q 125 419 161 422 q 196 425 227 431 l 194 312 q 251 377 295 404 q 339 431 385 431 q 432 431 457 409 q 483 386 483 346 q 483 332 479 315 q 476 299 466 268 l 398 61 q 396 53 394 48 q 393 43 393 41 q 393 34 399 27 q 405 21 413 21 q 426 21 452 42 q 478 64 500 96 l 511 86 q 478 38 440 12 q 401 -13 362 -13 q 322 -13 300 7 q 278 28 278 64 q 278 77 281 92 q 283 106 288 121 l 368 360 q 371 370 373 377 q 374 385 374 390 q 374 400 368 406 q 362 412 351 412 q 318 412 264 363 q 210 314 173 242 z"},"h":{"x_min":0,"x_max":562,"ha":562,"o":"m 104 0 l -24 0 l 164 652 l 99 652 l 103 667 l 151 667 q 195 667 231 670 q 268 672 299 678 l 194 312 q 251 377 295 404 q 339 431 385 431 q 432 431 457 409 q 483 386 483 346 q 483 333 480 317 q 477 301 466 268 l 409 94 l 409 93 q 396 57 396 41 q 396 33 402 28 q 408 22 416 22 q 428 22 453 43 q 478 64 500 96 l 511 86 q 478 38 440 12 q 401 -13 362 -13 q 322 -13 300 7 q 278 28 278 64 q 278 77 281 92 q 283 106 288 121 l 368 360 q 371 370 373 377 q 374 385 374 390 q 374 400 368 406 q 362 412 351 412 q 338 412 314 399 q 291 386 268 365 q 231 331 205 297 q 180 264 173 242 z"},"z":{"x_min":0,"x_max":486,"ha":486,"o":"m 25 280 l 8 283 l 84 431 q 134 413 184 404 q 235 395 287 395 q 308 395 332 397 q 355 398 384 402 q 384 415 389 422 q 394 429 402 429 q 409 429 413 424 q 418 419 418 412 q 418 391 339 325 l 325 313 l 75 102 q 99 109 119 113 q 139 116 157 116 q 180 116 206 110 q 232 103 277 85 q 287 81 305 73 q 345 55 357 55 q 371 55 383 66 q 394 77 394 90 q 394 92 393 94 q 393 95 391 95 q 390 95 384 94 q 378 93 373 93 q 356 93 344 107 q 332 122 332 142 q 332 163 344 176 q 356 190 375 190 q 399 190 411 175 q 424 161 424 133 q 424 77 375 32 q 327 -12 264 -12 q 238 -12 201 -4 q 164 3 92 25 q 88 26 82 28 q 47 39 32 39 q 27 39 22 38 q 17 38 12 36 q 14 29 14 25 q 15 20 15 16 q 15 5 9 0 q 3 -5 -10 -5 q -19 -5 -24 -1 q -29 3 -29 9 q -29 22 -22 33 q -16 44 1 59 l 321 334 q 270 317 229 309 q 188 301 154 301 q 131 301 104 304 q 76 307 43 313 z"},"B":{"x_min":0,"x_max":634,"ha":634,"o":"m 240 345 l 295 345 q 354 345 383 358 q 412 370 434 400 q 458 432 472 476 q 486 520 486 564 q 486 610 463 631 q 439 652 388 652 l 325 652 z m 148 15 l 246 15 q 292 15 320 26 q 348 37 367 61 q 392 93 406 137 q 420 182 420 229 q 420 284 392 307 q 364 330 296 330 l 236 330 z m -72 0 l -69 15 l 6 15 l 183 652 l 108 652 l 112 667 l 418 667 q 514 667 566 629 q 619 592 619 524 q 619 453 570 408 q 521 363 416 339 q 486 332 524 295 q 562 259 562 200 q 562 109 482 54 q 402 0 267 0 z"},"K":{"x_min":0,"x_max":611,"ha":611,"o":"m 150 15 l 222 15 l 219 0 l -72 0 l -69 15 l 6 15 l 183 652 l 108 652 l 112 667 l 402 667 l 399 652 l 327 652 l 244 354 l 495 562 q 525 587 534 599 q 544 612 544 623 q 544 637 532 644 q 520 652 498 652 l 487 652 l 491 667 l 706 667 l 702 652 l 699 652 q 664 652 624 634 q 584 616 541 580 l 336 409 l 523 15 l 586 15 l 582 0 l 316 0 l 320 15 l 378 15 l 236 323 z"},"R":{"x_min":0,"x_max":662,"ha":662,"o":"m -72 0 l -69 15 l 6 15 l 183 652 l 108 652 l 112 667 l 442 667 q 538 667 591 631 q 644 596 644 532 q 644 446 586 397 q 528 348 419 341 q 487 327 515 294 q 544 262 544 199 q 544 162 523 104 q 502 46 502 32 q 502 21 510 12 q 518 3 529 3 q 544 3 562 15 q 581 27 595 48 l 604 37 q 585 9 561 -3 q 536 -16 498 -16 q 440 -16 407 11 q 375 38 375 86 q 375 122 396 189 q 418 256 418 283 q 418 312 401 324 q 384 337 343 337 l 237 337 l 148 15 l 222 15 l 219 0 z m 241 352 l 335 352 q 396 352 419 364 q 442 376 463 411 q 482 442 496 490 q 509 538 509 576 q 509 616 486 634 q 463 652 411 652 l 325 652 z"},"T":{"x_min":0,"x_max":667,"ha":667,"o":"m 92 0 l 96 15 l 170 15 l 347 652 q 344 652 339 653 q 334 653 326 653 q 236 653 170 598 q 105 543 69 438 l 54 438 l 119 667 l 730 667 l 673 438 l 658 438 q 664 460 667 480 q 671 500 671 516 q 671 583 630 617 q 588 652 508 652 l 491 652 l 314 15 l 389 15 l 385 0 z"},"P":{"x_min":0,"x_max":602,"ha":602,"o":"m -72 0 l -69 15 l 6 15 l 183 652 l 108 652 l 112 667 l 391 667 q 495 667 552 629 q 609 591 609 522 q 609 415 531 356 q 453 298 310 298 l 227 298 l 148 15 l 222 15 l 219 0 z m 231 314 l 280 314 q 343 314 374 329 q 405 344 430 383 q 450 413 464 465 q 479 517 479 558 q 479 605 452 628 q 425 652 371 652 l 325 652 z"},"|":{"x_min":0,"x_max":500,"ha":500,"o":"m 294 764 l 294 -236 l 207 -236 l 207 764 z"},"t":{"x_min":0,"x_max":301,"ha":301,"o":"m 100 404 l 10 404 l 14 419 l 103 419 l 139 540 q 176 547 212 559 q 248 571 284 588 l 231 419 l 326 419 l 323 404 l 228 404 l 136 93 q 132 78 129 64 q 127 50 127 41 q 127 30 133 24 q 138 18 149 18 q 164 18 191 44 q 218 71 249 117 l 261 108 q 223 47 184 17 q 145 -12 103 -12 q 60 -12 33 14 q 6 40 6 81 q 6 90 9 104 q 12 119 20 146 z"},"M":{"x_min":0,"x_max":815,"ha":815,"o":"m 107 0 l -74 0 l -71 15 l -61 15 q -25 15 -4 39 q 17 63 38 138 l 181 652 l 106 652 l 110 667 l 320 667 l 363 184 l 670 667 l 888 667 l 885 652 l 810 652 l 633 15 l 708 15 l 704 0 l 411 0 l 415 15 l 489 15 l 658 620 l 264 0 l 245 0 l 191 634 l 54 140 q 47 116 44 95 q 40 74 40 63 q 40 38 55 26 q 69 15 102 15 l 111 15 z"},"g":{"x_min":0,"x_max":491,"ha":491,"o":"m 134 -32 q 96 -33 77 -36 q 58 -39 46 -44 q 19 -57 3 -82 q -13 -106 -13 -134 q -13 -181 23 -207 q 60 -233 125 -233 q 217 -233 286 -186 q 354 -139 354 -82 q 354 -55 333 -42 q 312 -30 264 -30 l 258 -30 z m 242 417 q 220 417 207 405 q 194 393 177 348 q 160 302 149 257 q 139 211 139 189 q 139 171 149 161 q 158 152 177 152 q 197 152 212 167 q 228 183 242 217 q 261 265 273 311 q 285 358 285 378 q 285 398 275 408 q 265 417 242 417 z m 97 66 l 244 71 l 260 71 q 331 71 361 47 q 391 23 391 -32 q 391 -124 312 -186 q 233 -248 114 -248 q 27 -248 -24 -217 q -75 -185 -75 -134 q -75 -100 -46 -73 q -18 -45 35 -31 q 5 -21 -11 0 q -28 22 -28 52 q -28 98 10 129 q 47 160 105 161 q 72 180 56 208 q 39 236 39 274 q 39 338 94 385 q 149 431 226 431 q 261 431 290 422 q 319 412 345 392 q 358 416 379 428 q 400 440 428 440 q 460 440 479 423 q 498 407 498 378 q 498 358 484 346 q 471 333 449 333 q 426 333 411 345 q 396 357 396 376 q 396 386 404 399 q 411 413 411 416 q 411 417 410 419 q 409 420 408 420 q 392 420 378 409 q 365 399 355 379 q 370 359 377 337 q 385 315 385 290 q 385 226 329 182 q 273 138 189 138 q 173 138 157 141 q 141 144 125 149 q 75 147 46 133 q 16 119 16 97 q 16 81 32 73 q 48 66 83 66 z"},"j":{"x_min":0,"x_max":282,"ha":282,"o":"m 147 590 q 147 627 171 651 q 196 676 233 676 q 265 676 283 660 q 302 645 302 619 q 302 581 278 556 q 254 532 217 532 q 185 532 166 548 q 147 563 147 590 z m 99 404 l 34 404 l 39 419 l 87 419 q 127 419 164 422 q 201 425 234 431 l 119 31 q 83 -93 7 -170 q -70 -248 -150 -248 q -192 -248 -217 -230 q -242 -212 -242 -182 q -242 -152 -223 -135 q -205 -117 -173 -117 q -149 -117 -133 -133 q -117 -148 -117 -172 q -117 -188 -127 -203 q -138 -218 -158 -230 q -155 -230 -153 -231 q -150 -231 -144 -231 q -114 -231 -93 -208 q -72 -185 -58 -137 z"},"i":{"x_min":0,"x_max":282,"ha":282,"o":"m 136 590 q 136 627 160 651 q 185 676 222 676 q 254 676 272 660 q 291 645 291 619 q 291 581 267 557 q 243 532 205 532 q 173 532 155 548 q 136 563 136 590 z m 88 404 l 23 404 l 28 419 l 76 419 q 117 419 153 422 q 190 425 223 431 l 117 61 q 117 59 115 55 q 112 41 112 38 q 112 32 118 26 q 124 21 131 21 q 145 21 170 42 q 195 63 218 96 l 228 86 q 195 38 157 13 q 119 -12 80 -12 q 40 -12 18 8 q -4 28 -4 64 q -4 75 -2 88 q 0 102 6 121 z"},"y":{"x_min":0,"x_max":537,"ha":537,"o":"m 111 274 q 106 330 98 345 q 90 360 72 360 q 57 360 39 343 q 22 325 3 291 l -9 298 q 26 361 70 396 q 113 431 156 431 q 190 431 207 405 q 223 379 230 308 l 247 126 l 372 335 q 403 387 430 409 q 458 431 489 431 q 519 431 536 416 q 553 400 553 374 q 553 345 536 326 q 518 307 491 307 q 467 307 452 320 q 437 333 437 354 q 437 366 441 377 q 445 388 453 398 q 438 394 422 377 q 406 361 381 319 l 146 -75 q 88 -171 42 -209 q -3 -248 -57 -248 q -99 -248 -124 -229 q -149 -209 -149 -177 q -149 -148 -129 -129 q -108 -110 -78 -110 q -51 -110 -35 -126 q -19 -143 -19 -169 q -19 -187 -27 -198 q -34 -209 -58 -223 q -51 -226 -45 -228 q -40 -229 -35 -229 q 2 -229 50 -182 q 97 -136 139 -56 z"},"@":{"x_min":0,"x_max":986,"ha":986,"o":"m 637 402 l 662 485 l 746 485 l 662 184 l 661 181 q 654 152 654 137 q 654 113 665 100 q 675 87 694 87 q 710 87 735 98 q 759 108 780 125 q 833 168 862 233 q 891 299 891 378 q 891 514 798 598 q 705 681 552 681 q 467 681 391 649 q 315 618 258 559 q 198 498 168 419 q 138 341 138 245 q 138 161 167 95 q 196 30 255 -19 q 307 -62 375 -85 q 444 -108 523 -108 q 604 -108 680 -83 q 755 -58 828 -6 l 846 -29 q 774 -83 692 -111 q 611 -138 523 -138 q 431 -138 354 -115 q 276 -93 219 -50 q 146 5 107 85 q 68 166 68 262 q 68 361 110 448 q 152 535 232 601 q 298 655 377 683 q 457 711 546 711 q 716 711 818 619 q 920 527 920 374 q 920 296 891 229 q 862 161 809 113 q 779 86 746 73 q 713 59 681 59 q 633 59 607 85 q 580 110 577 159 q 546 108 510 84 q 474 60 429 60 q 364 60 325 105 q 287 150 287 226 q 287 281 311 333 q 335 385 380 428 q 413 460 452 477 q 491 493 531 493 q 575 493 602 470 q 629 447 637 402 z m 610 377 q 610 417 592 442 q 573 466 543 466 q 512 466 486 444 q 460 422 434 372 q 406 320 392 270 q 377 220 377 179 q 377 139 395 114 q 413 90 441 90 q 471 90 497 110 q 523 130 550 175 q 577 222 594 277 q 610 333 610 377 z"},".":{"x_min":0,"x_max":264,"ha":264,"o":"m 3 62 q 3 92 24 113 q 46 134 76 134 q 106 134 127 113 q 148 92 148 62 q 148 31 127 9 q 106 -12 76 -12 q 45 -12 24 10 q 3 31 3 62 z"},"p":{"x_min":0,"x_max":537,"ha":537,"o":"m 39 -226 l 92 -226 l 88 -241 l -142 -241 l -137 -226 l -88 -226 l 92 404 l 34 404 l 38 419 l 88 419 q 136 419 169 422 q 202 425 230 431 l 205 344 q 244 390 280 410 q 316 431 358 431 q 417 431 449 395 q 482 358 482 292 q 482 225 460 165 q 438 105 396 62 q 361 25 323 6 q 286 -12 244 -12 q 190 -12 164 12 q 137 37 131 92 z m 332 413 q 306 413 270 385 q 234 357 208 315 q 181 271 164 212 q 146 153 146 109 q 146 62 165 34 q 184 7 215 7 q 238 7 257 30 q 276 53 303 118 q 333 192 351 260 q 369 327 369 364 q 369 389 360 401 q 351 413 332 413 z"},"X":{"x_min":0,"x_max":597,"ha":597,"o":"m -74 0 l -70 15 q -67 15 -63 15 q -58 14 -56 14 q -14 14 24 39 q 63 63 106 117 l 241 287 l 157 652 l 88 652 l 92 667 l 360 667 l 356 652 l 294 652 l 345 417 l 478 586 q 485 595 489 605 q 493 615 493 622 q 493 638 480 645 q 467 652 438 652 l 431 652 l 435 667 l 643 667 l 639 652 q 591 651 557 633 q 523 615 479 559 l 349 397 l 436 15 l 508 15 l 505 0 l 228 0 l 231 15 l 302 15 l 246 266 l 117 105 q 99 82 90 66 q 81 51 81 41 q 81 28 94 21 q 107 14 132 14 q 134 14 139 15 q 145 15 147 15 l 144 0 z"},"*":{"x_min":0,"x_max":500,"ha":500,"o":"m 288 465 q 288 494 282 519 q 276 543 263 566 q 255 581 240 602 q 226 623 226 629 q 226 632 228 634 q 229 635 234 635 q 235 635 240 634 q 244 634 247 634 l 268 633 l 281 662 q 282 664 283 669 q 286 683 294 683 q 297 683 300 680 q 303 678 307 670 l 325 629 l 353 634 l 356 634 q 360 634 362 632 q 364 630 364 626 q 364 622 352 605 q 303 538 303 470 l 303 465 q 372 494 420 557 q 433 574 437 574 q 441 574 444 571 q 446 568 447 563 l 449 538 l 493 537 q 503 537 506 535 q 510 533 510 527 q 510 521 502 513 q 495 504 470 484 q 481 471 486 465 q 490 458 490 456 q 490 453 487 450 q 484 447 481 447 q 473 447 438 455 q 403 463 375 463 q 357 463 341 460 q 324 458 309 452 q 327 427 350 409 q 373 391 409 375 q 418 371 433 366 q 453 359 453 352 q 453 346 446 343 q 443 342 441 341 l 419 331 l 429 295 q 430 291 432 286 q 433 282 433 282 q 433 278 430 275 q 427 272 423 272 q 422 272 419 273 q 417 275 413 277 l 376 300 l 374 298 q 354 277 349 277 q 338 277 337 304 q 337 317 336 326 q 333 370 324 397 q 315 424 298 450 q 274 419 263 383 q 251 347 251 306 q 251 302 252 295 q 253 288 253 285 q 253 281 250 279 q 247 276 243 276 q 241 276 239 277 q 237 278 232 282 l 211 300 l 184 281 q 180 278 176 277 q 172 275 170 275 q 165 275 161 278 q 158 280 158 286 q 158 287 159 289 q 159 291 161 297 l 171 331 l 148 344 q 143 347 140 352 q 136 356 136 360 q 136 366 158 372 q 168 374 175 376 q 204 384 229 402 q 255 420 283 451 q 258 457 240 459 q 221 462 207 462 q 179 462 150 453 q 121 444 119 444 q 114 444 110 447 q 107 449 107 453 q 107 454 108 456 q 108 458 111 463 l 122 484 l 92 508 q 85 514 83 518 q 80 521 80 525 q 80 530 87 533 q 94 537 104 537 l 140 536 l 144 560 q 144 561 145 562 q 147 573 155 573 q 161 573 171 556 q 182 540 189 531 q 210 506 235 490 q 259 473 288 465 z"},"Y":{"x_min":0,"x_max":472,"ha":472,"o":"m 201 15 l 276 15 l 272 0 l -21 0 l -17 15 l 57 15 l 134 290 l 105 652 l 33 652 l 36 667 l 320 667 l 317 652 l 241 652 l 272 305 l 447 547 q 464 570 472 589 q 481 607 481 619 q 481 636 467 644 q 453 652 422 652 l 425 667 l 615 667 l 612 652 q 539 648 481 567 q 474 558 470 552 l 277 286 z"},"c":{"x_min":0,"x_max":440,"ha":440,"o":"m 356 132 l 369 125 q 333 57 282 22 q 231 -12 167 -12 q 89 -12 38 35 q -12 82 -12 154 q -12 200 9 246 q 30 293 68 333 q 113 380 169 406 q 225 431 282 431 q 345 431 380 407 q 414 383 414 340 q 414 310 395 291 q 376 272 347 272 q 315 272 296 289 q 276 307 276 334 q 276 346 281 358 q 285 370 293 378 q 299 385 312 392 q 325 398 325 401 q 325 405 314 411 q 303 416 290 416 q 265 416 242 401 q 219 387 199 358 q 185 337 170 302 q 155 268 141 221 q 130 185 125 151 q 119 117 119 84 q 119 44 136 25 q 152 6 188 6 q 232 6 278 40 q 323 74 356 132 z"},"!":{"x_min":0,"x_max":333,"ha":333,"o":"m 18 57 q 18 87 39 108 q 60 129 90 129 q 120 129 141 108 q 162 87 162 57 q 162 26 141 5 q 121 -16 90 -16 q 60 -16 39 5 q 18 26 18 57 z m 131 199 l 116 199 q 139 271 150 340 q 161 408 161 474 q 161 502 157 526 q 153 550 145 571 q 183 598 211 625 q 238 653 259 683 q 268 642 279 613 q 291 584 308 563 q 258 511 217 427 q 176 343 131 199 z"},"/":{"x_min":0,"x_max":278,"ha":278,"o":"m -78 -93 l -111 -93 l 319 683 l 352 683 z"},"[":{"x_min":0,"x_max":352,"ha":352,"o":"m 56 -177 l 184 -177 l 180 -192 l -37 -192 l 201 667 l 418 667 l 413 652 l 285 652 z"},"6":{"x_min":0,"x_max":528,"ha":528,"o":"m 499 667 l 491 653 q 485 654 478 655 q 471 655 457 655 q 371 655 310 587 q 249 519 200 366 q 226 390 254 402 q 282 413 313 413 q 379 413 419 371 q 460 329 460 260 q 460 210 445 163 q 429 116 401 78 q 366 33 320 9 q 273 -15 219 -15 q 138 -15 88 47 q 38 109 38 212 q 38 303 75 393 q 113 484 176 549 q 234 609 302 639 q 369 670 442 670 q 457 670 471 669 q 485 668 499 667 z m 287 392 q 252 392 223 367 q 193 342 176 298 q 157 249 146 190 q 135 131 135 83 q 135 47 154 25 q 174 3 206 3 q 231 3 250 18 q 270 33 284 63 q 296 89 307 124 q 318 159 328 199 q 339 246 345 277 q 350 309 350 329 q 350 360 334 376 q 318 392 287 392 z"},"r":{"x_min":0,"x_max":426,"ha":426,"o":"m 104 0 l -23 0 l 93 404 l 27 404 l 32 419 l 80 419 q 120 419 157 422 q 194 425 228 431 l 197 328 q 239 383 274 407 q 310 431 348 431 q 381 431 402 412 q 423 393 423 363 q 423 332 402 312 q 381 293 347 293 q 319 293 302 308 q 286 322 286 348 q 286 362 292 376 q 298 391 310 403 q 297 401 285 395 q 273 389 261 378 q 231 350 210 322 q 189 293 183 274 z"},"2":{"x_min":0,"x_max":528,"ha":528,"o":"m -4 0 q 8 38 32 74 q 56 109 95 149 q 108 162 167 217 q 227 271 262 312 q 308 365 336 434 q 364 502 364 557 q 364 603 340 628 q 317 653 274 653 q 223 653 178 622 q 134 591 134 561 q 134 549 162 538 q 174 533 181 530 q 195 523 204 508 q 213 493 213 475 q 213 449 197 431 q 182 414 158 414 q 132 414 115 436 q 98 458 98 494 q 98 570 153 620 q 208 670 290 670 q 376 670 430 626 q 484 582 484 513 q 484 452 442 389 q 399 327 331 288 q 322 283 302 272 q 151 188 80 112 l 319 112 q 361 112 379 124 q 397 137 409 169 l 426 169 q 403 129 382 87 q 360 45 338 0 z"},"{":{"x_min":0,"x_max":500,"ha":500,"o":"m 415 712 q 353 711 329 686 q 306 660 306 583 l 306 516 q 306 406 279 366 q 251 326 177 310 q 251 294 279 254 q 306 214 306 104 l 306 37 q 306 -40 329 -65 q 352 -90 415 -91 l 415 -119 l 410 -119 q 302 -119 261 -83 q 220 -47 220 50 l 220 148 q 220 227 192 257 q 164 288 87 294 l 87 327 q 165 334 192 364 q 220 394 220 473 l 220 571 q 220 668 261 704 q 303 740 415 740 z"},"9":{"x_min":0,"x_max":528,"ha":528,"o":"m 27 -12 l 34 2 q 37 1 40 1 q 44 1 51 1 l 68 1 q 155 1 216 69 q 277 137 326 288 q 299 264 272 253 q 244 241 212 241 q 146 241 106 283 q 65 325 65 394 q 65 444 81 491 q 96 539 125 576 q 159 621 206 645 q 253 669 307 669 q 388 669 438 607 q 487 545 487 443 q 487 353 450 262 q 413 171 350 106 q 291 46 224 15 q 157 -15 83 -15 q 69 -15 55 -14 q 41 -14 27 -12 z m 238 262 q 273 262 303 287 q 333 312 350 356 q 369 405 380 464 q 391 522 391 571 q 391 607 371 629 q 352 652 319 652 q 295 652 275 637 q 256 622 242 591 q 229 564 218 530 q 207 495 198 455 q 186 408 181 377 q 175 346 175 326 q 175 295 192 279 q 208 262 238 262 z"}," ":{"x_min":0,"x_max":264,"ha":264,"o":""},"I":{"x_min":0,"x_max":344,"ha":344,"o":"m -67 0 l -64 15 l 11 15 l 188 652 l 113 652 l 117 667 l 410 667 l 406 652 l 332 652 l 155 15 l 230 15 l 226 0 z"},"H":{"x_min":0,"x_max":722,"ha":722,"o":"m 486 337 l 239 337 l 150 15 l 222 15 l 219 0 l -72 0 l -69 15 l 6 15 l 183 652 l 108 652 l 112 667 l 402 667 l 399 652 l 327 652 l 244 352 l 490 352 l 573 652 l 501 652 l 505 667 l 796 667 l 792 652 l 717 652 l 541 15 l 615 15 l 611 0 l 321 0 l 324 15 l 397 15 z"},"4":{"x_min":0,"x_max":528,"ha":528,"o":"m 257 260 l 342 556 l 74 260 z m 109 0 l 113 15 l 187 15 l 237 194 l 17 194 l 17 221 l 412 655 l 487 655 l 377 260 l 472 260 l 454 194 l 359 194 l 309 15 l 382 15 l 382 0 z"},"~":{"x_min":0,"x_max":833,"ha":833,"o":"m 747 293 q 697 258 651 241 q 604 224 561 224 q 540 224 516 228 q 492 232 468 241 q 456 245 431 254 q 327 290 275 290 q 235 290 190 271 q 145 253 87 212 l 87 303 q 139 338 186 356 q 232 373 276 373 q 306 373 337 367 q 368 361 419 344 q 426 342 440 336 q 520 308 562 308 q 604 308 648 326 q 693 344 747 383 z"},"D":{"x_min":0,"x_max":713,"ha":713,"o":"m -72 0 l -69 15 l 6 15 l 183 652 l 108 652 l 112 667 l 406 667 q 538 667 611 599 q 683 530 683 406 q 683 327 655 253 q 626 180 572 120 q 514 55 448 28 q 382 0 283 0 z m 150 15 l 261 15 q 332 15 378 46 q 424 78 459 149 q 499 231 523 326 q 547 421 547 493 q 547 568 509 610 q 471 652 402 652 l 327 652 z"},"^":{"x_min":0,"x_max":1000,"ha":1000,"o":"m 552 714 l 797 438 l 746 438 l 499 632 l 252 438 l 201 438 l 447 714 z"},"0":{"x_min":0,"x_max":528,"ha":528,"o":"m 181 5 q 217 5 247 46 q 277 86 314 188 q 327 225 343 279 q 358 334 375 402 q 388 457 395 504 q 402 551 402 579 q 402 614 388 632 q 374 651 347 651 q 312 651 281 609 q 250 567 213 467 q 198 425 182 371 q 167 316 152 255 q 139 199 132 152 q 125 105 125 76 q 125 42 139 23 q 154 5 181 5 z m 21 209 q 21 284 41 355 q 60 425 98 488 q 150 574 215 622 q 281 669 347 669 q 425 669 466 611 q 507 554 507 445 q 507 372 488 302 q 468 231 430 167 q 379 82 313 34 q 247 -14 180 -14 q 103 -14 62 43 q 21 100 21 209 z"},"F":{"x_min":0,"x_max":551,"ha":551,"o":"m -72 0 l -69 15 l 6 15 l 183 652 l 108 652 l 112 667 l 613 667 l 578 460 l 563 460 q 566 478 567 494 q 569 510 569 524 q 569 592 529 622 q 488 652 395 652 l 327 652 l 247 365 l 294 365 q 363 365 392 387 q 420 408 438 468 l 453 468 q 432 412 416 353 q 400 295 390 234 l 375 235 q 379 253 381 267 q 383 281 383 290 q 383 324 362 337 q 341 351 287 351 l 244 351 l 150 15 l 235 15 l 232 0 z"},"`":{"x_min":0,"x_max":500,"ha":500,"o":"m 375 485 l 324 485 l 197 579 q 180 592 173 601 q 166 610 166 620 q 166 638 178 650 q 189 662 207 662 q 220 662 231 655 q 242 648 255 632 z"},"k":{"x_min":0,"x_max":542,"ha":542,"o":"m 104 0 l -24 0 l 164 652 l 99 652 l 103 667 l 152 667 q 196 667 232 670 q 269 672 300 678 l 175 252 l 196 252 q 242 252 267 263 q 292 275 303 301 q 307 311 314 329 q 357 431 425 431 q 458 431 477 416 q 495 400 495 371 q 495 347 477 330 q 459 314 433 314 q 416 314 402 322 q 388 329 380 343 q 376 349 375 367 q 375 385 367 385 q 353 385 334 337 q 326 314 320 301 q 310 277 296 263 q 281 250 260 245 q 312 233 335 206 q 359 178 363 125 q 364 113 365 92 q 368 28 400 28 q 420 28 439 48 q 458 68 471 104 l 483 101 q 470 50 432 19 q 394 -12 346 -12 q 321 -12 301 -2 q 280 7 267 26 q 247 54 247 122 q 247 142 246 153 q 244 202 230 219 q 217 237 182 237 l 172 237 z"},"u":{"x_min":0,"x_max":567,"ha":567,"o":"m 93 404 l 28 404 l 32 419 l 80 419 q 119 419 156 422 q 194 425 228 431 l 120 59 q 119 56 118 52 q 114 36 114 29 q 114 19 120 13 q 125 8 136 8 q 149 8 174 21 q 198 34 220 54 q 256 87 282 121 q 307 155 314 178 l 384 419 l 512 419 l 418 94 q 410 66 408 56 q 406 45 406 39 q 406 32 412 27 q 417 22 425 22 q 438 22 462 42 q 486 63 509 96 l 520 86 q 487 39 449 13 q 411 -12 373 -12 q 333 -12 311 9 q 289 29 289 66 q 289 74 290 83 q 292 93 294 107 q 236 42 192 15 q 149 -12 103 -12 q 58 -12 32 9 q 6 30 6 67 q 6 96 19 144 q 21 149 21 151 z"},"]":{"x_min":0,"x_max":352,"ha":352,"o":"m 244 652 l 116 652 l 120 667 l 337 667 l 99 -192 l -118 -192 l -113 -177 l 15 -177 z"},"U":{"x_min":0,"x_max":662,"ha":662,"o":"m 178 652 l 104 652 l 108 667 l 401 667 l 397 652 l 322 652 l 198 203 q 188 167 185 146 q 181 126 181 111 q 181 59 214 29 q 248 -1 306 -1 q 393 -1 445 47 q 497 94 528 203 l 630 563 q 634 579 636 590 q 638 602 638 610 q 638 633 623 642 q 607 652 570 652 l 563 652 l 566 667 l 759 667 l 755 652 l 743 652 q 701 652 682 634 q 663 617 644 550 l 546 197 q 513 81 454 32 q 395 -16 285 -16 q 176 -16 113 28 q 50 73 50 150 q 50 170 54 194 q 58 218 67 248 z"},"o":{"x_min":0,"x_max":505,"ha":505,"o":"m 264 416 q 229 416 206 389 q 182 362 156 289 q 132 222 119 162 q 105 102 105 68 q 105 34 121 18 q 138 1 171 1 q 206 1 230 30 q 255 58 281 129 q 304 191 317 252 q 330 312 330 350 q 330 384 314 400 q 298 416 264 416 z m 173 -12 q 91 -12 40 36 q -11 85 -11 162 q -11 208 9 253 q 28 299 64 337 q 108 384 158 408 q 208 431 264 431 q 347 431 397 383 q 448 334 448 255 q 448 210 428 165 q 409 120 372 81 q 329 35 279 11 q 229 -12 173 -12 z"},"N":{"x_min":0,"x_max":653,"ha":653,"o":"m 56 140 q 49 115 45 94 q 41 74 41 63 q 41 38 56 27 q 71 15 104 15 l 113 15 l 109 0 l -88 0 l -84 15 q -82 15 -76 15 q -71 14 -69 14 q -27 14 -6 37 q 16 60 38 138 l 181 652 l 106 652 l 110 667 l 320 667 l 495 136 l 602 527 q 608 551 612 571 q 616 591 616 603 q 616 629 601 640 q 585 652 551 652 l 538 652 l 544 667 l 745 667 l 741 652 q 738 652 733 652 q 729 653 726 653 q 685 653 663 630 q 641 607 619 529 l 472 0 l 388 0 l 185 613 z"},"+":{"x_min":0,"x_max":833,"ha":833,"o":"m 458 596 l 458 339 l 709 339 l 709 258 l 458 258 l 458 0 l 375 0 l 375 258 l 124 258 l 124 339 l 375 339 l 375 596 z"},"G":{"x_min":0,"x_max":667,"ha":667,"o":"m 389 241 l 393 256 l 654 256 l 650 241 l 593 241 l 552 77 q 493 33 424 9 q 354 -15 288 -15 q 236 -15 192 3 q 147 21 113 56 q 71 98 49 153 q 27 208 27 267 q 27 336 53 406 q 80 477 130 539 q 187 610 258 647 q 328 683 409 683 q 442 683 472 677 q 501 670 532 655 q 547 647 572 631 q 597 615 608 615 q 618 615 625 623 q 631 630 637 647 l 652 644 q 632 583 619 525 q 605 467 597 413 l 582 413 l 582 416 q 584 443 584 455 q 584 555 539 612 q 494 669 417 669 q 358 669 317 629 q 277 590 235 487 q 197 394 175 299 q 153 205 153 137 q 153 69 188 35 q 223 1 293 1 q 344 1 371 27 q 398 53 422 137 l 450 241 z"},"q":{"x_min":0,"x_max":528,"ha":528,"o":"m 148 12 q 179 12 215 46 q 250 80 279 138 q 304 188 319 245 q 335 302 335 336 q 335 371 318 392 q 300 413 272 413 q 246 413 224 393 q 202 374 178 328 q 144 263 124 190 q 103 118 103 70 q 103 42 115 27 q 126 12 148 12 z m 492 419 l 306 -226 l 359 -226 l 355 -241 l 125 -241 l 130 -226 l 179 -226 l 266 78 q 226 32 188 10 q 150 -12 110 -12 q 52 -12 19 29 q -15 69 -15 139 q -15 189 2 237 q 20 284 54 325 q 95 375 146 403 q 198 431 251 431 q 292 431 315 414 q 339 396 347 360 l 364 419 z"},"d":{"x_min":0,"x_max":556,"ha":556,"o":"m 431 652 l 365 652 l 370 667 l 418 667 q 461 667 498 670 q 534 672 566 678 l 398 94 q 390 66 388 56 q 386 45 386 39 q 386 32 392 27 q 397 22 405 22 q 418 22 442 42 q 466 63 489 96 l 500 86 q 467 38 429 12 q 391 -13 351 -13 q 311 -13 289 8 q 267 29 267 68 l 267 78 q 227 32 189 10 q 151 -12 111 -12 q 53 -12 20 29 q -14 69 -14 139 q -14 189 3 237 q 21 284 55 325 q 97 376 149 404 q 201 431 257 431 q 296 431 319 412 q 342 394 348 357 z m 148 12 q 179 12 215 46 q 250 80 279 138 q 304 188 319 245 q 335 302 335 336 q 335 371 318 392 q 300 413 272 413 q 246 413 224 393 q 202 374 178 328 q 144 263 124 190 q 103 118 103 70 q 103 42 115 27 q 126 12 148 12 z"},"1":{"x_min":0,"x_max":528,"ha":528,"o":"m 64 0 l 68 15 l 129 15 l 280 562 q 239 542 197 524 q 154 506 107 490 l 104 505 q 167 525 242 563 q 316 601 439 674 l 256 15 l 324 15 l 324 0 z"},"5":{"x_min":0,"x_max":528,"ha":528,"o":"m 120 299 l 107 304 l 209 673 q 250 652 291 641 q 332 630 369 630 q 398 630 425 640 q 452 651 477 672 q 461 604 407 564 q 353 525 275 525 q 260 525 239 528 q 218 531 187 537 l 136 355 q 166 386 203 403 q 240 419 281 419 q 348 419 393 375 q 437 331 437 262 q 437 211 409 157 q 382 104 335 65 q 289 27 238 7 q 188 -13 138 -13 q 78 -13 40 20 q 1 52 1 101 q 1 131 22 154 q 43 176 72 176 q 97 176 113 160 q 129 144 129 120 q 129 105 121 92 q 113 78 99 69 q 93 65 83 61 q 63 51 63 40 q 63 23 82 13 q 102 2 132 2 q 167 2 194 18 q 221 34 244 68 q 256 87 267 113 q 278 138 289 173 q 301 211 307 246 q 313 281 313 308 q 313 350 295 374 q 277 397 244 397 q 208 397 175 371 q 141 345 120 299 z"}}}
